<?xml version="1.0" standalone="no"?>
<!DOCTYPE svg PUBLIC "-//W3C//DTD SVG 20010904//EN"
 "http://www.w3.org/TR/2001/REC-SVG-20010904/DTD/svg10.dtd">
<svg version="1.0" xmlns="http://www.w3.org/2000/svg"
 width="260.000000pt" height="260.000000pt" viewBox="0 0 260.000000 260.000000"
 preserveAspectRatio="xMidYMid meet">
<metadata>
Created by potrace 1.14, written by Peter Selinger 2001-2017
</metadata>
<g transform="translate(0.000000,260.000000) scale(0.100000,-0.100000)"
fill="#000000" stroke="none">
<path d="M1150 2593 c-321 -49 -576 -176 -782 -391 -250 -258 -371 -572 -363
-932 2 -80 6 -158 10 -175 21 -99 28 -128 51 -200 60 -188 163 -355 313 -506
192 -193 403 -308 672 -365 117 -25 381 -25 497 0 350 75 634 265 832 556 92
135 175 336 196 475 3 22 10 60 14 85 9 49 6 306 -4 355 -4 17 -11 55 -17 85
-28 137 -105 316 -196 452 -62 94 -248 280 -340 341 -138 91 -316 168 -453
196 -30 6 -68 13 -85 17 -34 7 -307 13 -345 7z m255 -147 c149 -9 169 23 -230
-376 -195 -195 -355 -353 -356 -350 -1 3 -2 142 -3 309 -1 191 3 308 9 316 29
35 250 94 380 102 50 3 92 7 93 9 2 1 9 1 15 -1 7 -2 48 -6 92 -9z m420 -121
c98 -49 191 -115 270 -192 57 -55 155 -170 155 -182 0 -5 -223 -8 -495 -8
-272 0 -494 2 -492 4 1 1 97 99 212 217 181 185 213 214 235 210 14 -2 66 -24
115 -49z m-1180 -585 l0 -500 -217 217 c-174 174 -217 222 -212 238 3 11 28
65 55 120 53 108 116 197 201 285 53 55 154 140 166 140 4 0 7 -225 7 -500z
m1008 -80 l133 -135 -1 -210 -1 -211 -149 -149 -150 -150 -200 -1 -200 -1
-147 146 -148 146 0 191 0 192 159 159 159 160 206 -1 207 -1 132 -135z m697
120 c16 -30 68 -187 74 -224 4 -21 8 -41 10 -45 21 -33 21 -378 0 -412 -3 -5
-577 562 -682 674 l-22 24 306 -1 c260 -1 307 -3 314 -16z m-1826 -626 c165
-166 311 -313 324 -326 l22 -25 -307 1 -307 1 -28 71 c-28 74 -63 200 -73 269
-7 42 -7 252 0 295 2 14 4 36 4 49 l1 25 31 -30 c17 -16 167 -165 333 -330z
m1635 -25 c122 -121 221 -226 221 -233 0 -23 -96 -202 -143 -267 -25 -35 -72
-91 -104 -124 -59 -62 -181 -165 -195 -165 -5 0 -8 227 -8 505 0 278 2 505 4
505 3 0 104 -99 225 -221z m-374 -558 l0 -320 -65 -25 c-75 -29 -202 -62 -275
-71 -102 -12 -259 -7 -345 10 -8 2 -19 4 -23 4 -9 1 693 720 703 721 3 0 5
-144 5 -319z m-455 82 c0 -2 -97 -100 -216 -219 l-216 -215 -41 16 c-106 42
-255 139 -337 218 -84 81 -170 182 -170 199 0 3 221 5 490 5 270 0 490 -2 490
-4z"/>
</g>
</svg>
